# xmcd CD database file
#
# Track frame offsets:
#	150
#	12134
#	25464
#	38043
#	51100
#	65234
#	80097
#	92706
#	106852
#	119063
#	132987
#	146107
#	161058
#	173212
#	184843
#	196877
#	207275
#	219988
#	232657
#	245500
#	260404
#	274449
#	285056
#
# Disc length: 4001 seconds
#
# Revision: 1
# Processed by: cddbd v1.5.2PL0 Copyright (c) Steve Scherf et al.
# Submitted via: CDex 1.70beta2
#
DISCID=530f9f17
DTITLE=Django Reinhardt - The Django Reinhardt Anthology (1934-1946)
DYEAR=2009
DGENRE=Jazz
TTITLE0=Dinah
TTITLE1=Sweet Sue (vocal: Jerry Mengo)
TTITLE2=Limehouse Blues
TTITLE3=Charleston
TTITLE4=The Sheik of Araby
TTITLE5=Minor Swing
TTITLE6=St. Louis Blues
TTITLE7=Sweet Georgia Brown
TTITLE8=Night and Day
TTITLE9=Black and White
TTITLE10=Honeysuckle Rose
TTITLE11=Swing 39
TTITLE12=Improvisation No. 2
TTITLE13=I'll See You In My Dreams
TTITLE14=Rythme Futur
TTITLE15=Les Yeux Noirs
TTITLE16=All of Me
TTITLE17=Swing '42
TTITLE18=Blues en Mineur
TTITLE19=Manoir de mes Rêves
TTITLE20=Blues Clair
TTITLE21=Douce Ambiance
TTITLE22=Nuages (Take 2)
EXTD=YEAR: 2009
EXTT0=
EXTT1=
EXTT2=
EXTT3=
EXTT4=
EXTT5=
EXTT6=
EXTT7=
EXTT8=
EXTT9=
EXTT10=
EXTT11=
EXTT12=
EXTT13=
EXTT14=
EXTT15=
EXTT16=
EXTT17=
EXTT18=
EXTT19=
EXTT20=
EXTT21=
EXTT22=
PLAYORDER=
